<svg width="19" height="19" viewBox="0 0 19 19" fill="none" xmlns="http://www.w3.org/2000/svg">
<path d="M3 0H16C16.7956 0 17.5587 0.316071 18.1213 0.87868C18.6839 1.44129 19 2.20435 19 3V12C19 12.7956 18.6839 13.5587 18.1213 14.1213C17.5587 14.6839 16.7956 15 16 15H11.414L7.707 18.707C7.56715 18.8468 7.38898 18.942 7.19503 18.9806C7.00108 19.0192 6.80005 18.9993 6.61735 18.9237C6.43465 18.848 6.27848 18.7199 6.1686 18.5555C6.05871 18.391 6.00004 18.1978 6 18V15H3C2.20435 15 1.44129 14.6839 0.87868 14.1213C0.316071 13.5587 0 12.7956 0 12V3C0 2.20435 0.316071 1.44129 0.87868 0.87868C1.44129 0.316071 2.20435 0 3 0ZM16 1H3C2.46957 1 1.96086 1.21071 1.58579 1.58579C1.21071 1.96086 1 2.46957 1 3V12C1 12.5304 1.21071 13.0391 1.58579 13.4142C1.96086 13.7893 2.46957 14 3 14H7V18L11 14H16C16.5304 14 17.0391 13.7893 17.4142 13.4142C17.7893 13.0391 18 12.5304 18 12V3C18 2.46957 17.7893 1.96086 17.4142 1.58579C17.0391 1.21071 16.5304 1 16 1Z" fill="white"/>
</svg>
