<svg width="19" height="19" viewBox="0 0 19 19" fill="none" xmlns="http://www.w3.org/2000/svg">
<path d="M3 0H16C16.7956 0 17.5587 0.316071 18.1213 0.87868C18.6839 1.44129 19 2.20435 19 3V16C19 16.7956 18.6839 17.5587 18.1213 18.1213C17.5587 18.6839 16.7956 19 16 19H3C2.20435 19 1.44129 18.6839 0.87868 18.1213C0.316071 17.5587 0 16.7956 0 16V3C0 2.20435 0.316071 1.44129 0.87868 0.87868C1.44129 0.316071 2.20435 0 3 0ZM3 1C2.46957 1 1.96086 1.21071 1.58579 1.58579C1.21071 1.96086 1 2.46957 1 3V14.586L5.293 10.293L7.793 12.793L12.793 7.793L18 13V3C18 2.46957 17.7893 1.96086 17.4142 1.58579C17.0391 1.21071 16.5304 1 16 1H3ZM7.793 14.207L5.293 11.707L1 16C1 16.5304 1.21071 17.0391 1.58579 17.4142C1.96086 17.7893 2.46957 18 3 18H16C16.5304 18 17.0391 17.7893 17.4142 17.4142C17.7893 17.0391 18 16.5304 18 16V14.414L12.793 9.207L7.793 14.207ZM5.5 3C6.16304 3 6.79893 3.26339 7.26777 3.73223C7.73661 4.20107 8 4.83696 8 5.5C8 6.16304 7.73661 6.79893 7.26777 7.26777C6.79893 7.73661 6.16304 8 5.5 8C4.83696 8 4.20107 7.73661 3.73223 7.26777C3.26339 6.79893 3 6.16304 3 5.5C3 4.83696 3.26339 4.20107 3.73223 3.73223C4.20107 3.26339 4.83696 3 5.5 3ZM5.5 4C5.10218 4 4.72064 4.15804 4.43934 4.43934C4.15804 4.72064 4 5.10218 4 5.5C4 5.89782 4.15804 6.27936 4.43934 6.56066C4.72064 6.84196 5.10218 7 5.5 7C5.89782 7 6.27936 6.84196 6.56066 6.56066C6.84196 6.27936 7 5.89782 7 5.5C7 5.10218 6.84196 4.72064 6.56066 4.43934C6.27936 4.15804 5.89782 4 5.5 4Z" fill="white"/>
</svg>
